<?xml version="1.0" standalone="no"?><!DOCTYPE svg PUBLIC "-//W3C//DTD SVG 1.1//EN" "http://www.w3.org/Graphics/SVG/1.1/DTD/svg11.dtd"><svg t="1754897589920" class="icon" viewBox="0 0 1024 1024" version="1.1" xmlns="http://www.w3.org/2000/svg" p-id="2848" xmlns:xlink="http://www.w3.org/1999/xlink" width="200" height="200"><path d="M198 491.77h33.41v214.81h-21.77a23.39 23.39 0 0 0 0 46.77h604.72a23.39 23.39 0 0 0 0-46.77h-21.72V491.77h33.41a23.38 23.38 0 0 0 15.21-41.15l-314-269a23.4 23.4 0 0 0-30.42 0l-314 269A23.38 23.38 0 0 0 198 491.77z m80.19 0h124.68v214.81H278.14z m296.22 0v214.81H449.64V491.77z m171.5 214.81H621.13V491.77h124.73zM512 230.22L762.79 445H261.21zM849.63 801.18H174.37a23.39 23.39 0 1 0 0 46.78h675.26a23.39 23.39 0 0 0 0-46.78z" p-id="2849" fill="#1296db"></path></svg>