<?xml version="1.0" standalone="no"?><!DOCTYPE svg PUBLIC "-//W3C//DTD SVG 1.1//EN" "http://www.w3.org/Graphics/SVG/1.1/DTD/svg11.dtd"><svg t="1754898099688" class="icon" viewBox="0 0 1024 1024" version="1.1" xmlns="http://www.w3.org/2000/svg" p-id="9634" xmlns:xlink="http://www.w3.org/1999/xlink" width="200" height="200"><path d="M224 128a32 32 0 0 0-32 32v728.448a32 32 0 0 0 46.336 28.608l262.72-131.392a96 96 0 0 1 85.888 0l262.72 131.392a32 32 0 0 0 46.336-28.608V160a32 32 0 0 0-32-32h-640z m0-64h640A96 96 0 0 1 960 160v728.448a96 96 0 0 1-138.88 85.888L558.272 842.88a32 32 0 0 0-28.672 0l-262.72 131.392A96 96 0 0 1 128 888.448V160A96 96 0 0 1 224 64z m320 548.16l-97.92 51.52a32 32 0 0 1-46.464-33.728l18.688-109.12-79.232-77.248a32 32 0 0 1 17.728-54.592l109.504-15.936 49.024-99.2a32 32 0 0 1 57.344 0l49.024 99.2 109.504 16a32 32 0 0 1 17.728 54.528l-79.232 77.248 18.688 109.12a32 32 0 0 1-46.4 33.728L544 612.16z m-14.912-64.512a32 32 0 0 1 29.824 0l55.424 29.184-10.56-61.76a32 32 0 0 1 9.216-28.352l44.8-43.712-61.952-8.96a32 32 0 0 1-24.128-17.536L544 360.32l-27.712 56.192a32 32 0 0 1-24.128 17.472l-62.016 9.024 44.864 43.712a32 32 0 0 1 9.216 28.352l-10.56 61.76 55.424-29.184z" fill="#000000" p-id="9635"></path></svg>