<?xml version="1.0" standalone="no"?><!DOCTYPE svg PUBLIC "-//W3C//DTD SVG 1.1//EN" "http://www.w3.org/Graphics/SVG/1.1/DTD/svg11.dtd"><svg t="1754897877122" class="icon" viewBox="0 0 1024 1024" version="1.1" xmlns="http://www.w3.org/2000/svg" p-id="4231" xmlns:xlink="http://www.w3.org/1999/xlink" width="200" height="200"><path d="M448.53741 894.122343c-246.879952 0-447.061172-200.181219-447.061172-447.061171S201.657458 0 448.53741 0s447.061172 200.181219 447.061171 447.061172c-0.459834 246.726674-200.334498 446.601337-447.061171 447.061171z m0-808.950803c-199.874663 0-361.889632 162.014969-361.889632 361.889632s162.014969 361.889632 361.889632 361.889631 361.889632-162.014969 361.889632-361.889631c-0.204371-199.772478-162.117154-361.634168-361.889632-361.889632z" p-id="4232"></path><path d="M979.135155 1024a42.626644 42.626644 0 0 1-30.246882-12.773176l-212.903303-212.903303c-17.882447-15.276719-19.926155-42.151482-4.649436-60.033929 15.276719-17.882447 42.151482-19.926155 60.033929-4.649436 1.686059 1.430596 3.21884 2.963377 4.649436 4.649436l212.903303 212.903303a42.58577 42.58577 0 0 1 0 60.033929 42.601098 42.601098 0 0 1-29.787047 12.773176zM448.895059 537.341982L251.115196 393.362738 448.895059 249.945514l197.268935 143.417224-197.268935 143.979244z" p-id="4233"></path><path d="M448.895059 562.479593c-5.466919 0.102185-10.780561-1.686059-15.123441-5.058178L235.991756 414.004191a25.556571 25.556571 0 0 1-10.065263-20.641453c-0.153278-7.970462 3.576489-15.48109 10.065263-20.130526l197.779862-144.439078a25.229578 25.229578 0 0 1 29.684862 0l197.779862 143.928151c6.488774 4.649436 10.218541 12.160064 10.065263 20.130526 0.102185 8.072647-3.627582 15.736553-10.065263 20.641453L463.45648 556.910488c-4.036324 3.525397-9.196687 5.466919-14.561421 5.569105z m-155.015268-169.116855l155.015268 112.710508 154.504341-112.710508-154.504341-114.192196-155.015268 114.192196z" p-id="4234"></path><path d="M448.895059 670.183016c-5.364734 0.051093-10.627283-1.532781-15.123441-4.547251l-197.779862-143.928151a25.367528 25.367528 0 0 1-5.773476-35.458337 25.367528 25.367528 0 0 1 35.458337-5.773476l183.167349 133.351961 182.707514-133.351961c11.240395-8.174833 27.028041-5.722383 35.253967 5.518012 8.174833 11.240395 5.722383 27.028041-5.518012 35.253967l-197.779863 143.928151c-4.291787 3.065562-9.349965 4.853807-14.612513 5.007085z" p-id="4235"></path></svg>