<?xml version="1.0" standalone="no"?><!DOCTYPE svg PUBLIC "-//W3C//DTD SVG 1.1//EN" "http://www.w3.org/Graphics/SVG/1.1/DTD/svg11.dtd"><svg t="1754967375791" class="icon" viewBox="0 0 1024 1024" version="1.1" xmlns="http://www.w3.org/2000/svg" p-id="5946" xmlns:xlink="http://www.w3.org/1999/xlink" width="200" height="200"><path d="M731.428571 643.657143h-43.885714l-21.942857-14.628572c58.514286-65.828571 95.085714-153.6 95.085714-248.685714C760.685714 168.228571 592.457143 0 380.342857 0S0 168.228571 0 380.342857s168.228571 380.342857 380.342857 380.342857c95.085714 0 182.857143-36.571429 248.685714-95.085714l14.628572 14.628571v51.2l292.571428 292.571429 87.771429-87.771429-292.571429-292.571428z m-351.085714 0c-146.285714 0-263.314286-117.028571-263.314286-263.314286s117.028571-263.314286 263.314286-263.314286 263.314286 117.028571 263.314286 263.314286-117.028571 263.314286-263.314286 263.314286z" fill="#020202" p-id="5947"></path></svg>